<?xml version="1.0" encoding="utf-8"?>
<!-- Generator: Adobe Illustrator 26.2.1, SVG Export Plug-In . SVG Version: 6.00 Build 0)  -->
<svg version="1.1" id="圖層_1" xmlns="http://www.w3.org/2000/svg" xmlns:xlink="http://www.w3.org/1999/xlink" x="0px" y="0px"
	 viewBox="0 0 58.3 56.2" style="enable-background:new 0 0 58.3 56.2;" xml:space="preserve">
<style type="text/css">
	.st0{fill:#B2846F;}
	.st1{fill:#FFFFFF;}
	.st2{fill:none;stroke:#B2846F;stroke-width:0.5;stroke-miterlimit:10;}
</style>
<path class="st0" d="M39.2,50.5H18.9c-6.6,0-12-5.4-12-12V18.2c0-6.6,5.4-12,12-12h20.3c6.6,0,12,5.4,12,12v20.3
	C51.2,45.1,45.8,50.5,39.2,50.5z"/>
<path class="st1" d="M37.7,13.1c1.9,0,3.6,0.7,4.9,1.9c1.3,1.4,2,3,2,4.8c0,0.3,0,0.8-0.1,1.3c0,0.5-0.1,1.1-0.2,1.8
	c-0.3,1.1-0.7,2.2-1,3.4c-0.5,1.6-1.2,3.1-1.3,4.8c0,1.2,0,2.4,0,3.5c0,1.8,0.1,3.6-0.1,5.3c-0.2,1.2-0.7,2-1.6,2.7
	c-0.9,0.7-1.8,0.9-2.9,0.9c-0.6,0-1.2-0.2-1.7-0.4c-0.6-0.3-1-0.7-1.5-1.3L29.8,37c-0.1-0.1-0.2-0.2-0.3-0.2
	c-0.1-0.1-0.3-0.1-0.4-0.1c-0.1,0-0.3,0.2-0.7,0.4l-4.5,4.6c-0.4,0.6-1,1-1.6,1.3c-0.6,0.3-1.2,0.4-1.8,0.4c-1,0-2-0.3-2.9-0.9
	c-0.9-0.6-1.4-1.5-1.6-2.7c0.1-1.3,0.1-2.5,0.2-3.7c0-0.9,0.1-1.9,0.1-2.8c0.1-1.3,0.1-2.3-0.3-3.5c-0.3-0.9-0.6-1.9-1-2.8
	c-0.4-1.3-1.2-2.8-1.4-4.1c-0.1-0.7-0.2-1.3-0.2-1.8c-0.1-0.6-0.1-1-0.1-1.4c0-1.9,0.7-3.4,2.1-4.7s2.9-1.9,4.9-1.9
	c1,0,1.9,0.2,2.5,0.4c0.6,0.3,1.2,0.6,1.8,0.8c0.6,0.3,1.2,0.6,1.8,0.8c0.7,0.3,1.5,0.4,2.5,0.4c1,0,1.9-0.2,2.5-0.4
	c0.6-0.3,1.3-0.6,1.8-0.8c0.6-0.3,1.2-0.6,1.8-0.8C35.8,13.4,36.7,13.1,37.7,13.1z M37.7,15.6c-0.7,0-1.2,0.1-1.7,0.3
	c-0.5,0.2-1,0.4-1.6,0.8c-1,0.5-1.8,0.8-2.6,1.1c-0.8,0.3-1.7,0.3-2.9,0.3c-1.1,0-2.1-0.1-2.8-0.3c-0.8-0.3-1.6-0.6-2.6-1.1
	c-0.5-0.3-1-0.6-1.6-0.8c-0.5-0.2-1.1-0.3-1.7-0.3c-1.2,0-2.3,0.4-3.1,1.3c-0.9,0.8-1.1,1.8-1.1,3c0,0.3,0,0.6,0.1,1
	c0,0.4,0.1,0.9,0.2,1.6c0.4,1.3,0.8,2.5,1.2,3.7c0.3,0.9,0.6,1.9,0.9,2.8c0.4,1.2,0.6,2.2,0.6,3.5c0,1-0.1,2-0.1,3
	c-0.1,1.4-0.3,2.8-0.2,4.1c0.1,0.5,0.3,0.8,0.6,1.1c0.3,0.3,0.8,0.4,1.1,0.4c0.3,0,0.5-0.1,0.8-0.2c0.3-0.1,0.4-0.3,0.6-0.5l4.4-4.6
	c0.3-0.5,0.8-0.8,1.3-1.1c0.5-0.3,1-0.4,1.6-0.4c0.5,0,1,0.1,1.6,0.4c0.5,0.3,1,0.6,1.3,1.1l4.4,4.6c0.2,0.3,0.3,0.4,0.6,0.5
	s0.4,0.2,0.7,0.2c0.4,0,0.8-0.2,1.1-0.4c0.3-0.3,0.6-0.6,0.6-1c0-1.2,0-2.4,0-3.6c0-1.9-0.3-3.7,0.1-5.5c0.2-1,0.5-2,0.9-3
	c0.4-1.6,1.2-3.4,1.5-5.1c0.1-0.6,0.2-1.1,0.2-1.5c0-0.4,0-0.8,0-1c0-1.2-0.4-2.2-1.3-3C40,16.1,39,15.6,37.7,15.6z"/>
<path class="st2" d="M39.4,52.3H18.7c-7.5,0-13.6-6.1-13.6-13.6V18c0-7.5,6.1-13.6,13.6-13.6h20.7C46.9,4.4,53,10.5,53,18v20.7
	C53,46.2,46.9,52.3,39.4,52.3z"/>
</svg>
