<svg xmlns="http://www.w3.org/2000/svg" xml:space="preserve" style="fill-rule:evenodd;clip-rule:evenodd;stroke-linejoin:round;stroke-miterlimit:2" viewBox="0 0 275 275"><path d="M226.9 262.4H48c-16.9 0-30.6-13.7-30.6-30.6V43.1c0-16.9 13.7-30.6 30.6-30.6h178.9c16.9 0 30.6 13.7 30.6 30.6v188.7c0 16.9-13.7 30.6-30.6 30.6" style="fill:#f8f8f8;fill-rule:nonzero"/><path d="M111.135 201.123c.299-2.056.698-3.817.798-5.481.898-10.278 1.596-20.556 4.589-30.442.998-3.524 2.294-7.048 4.09-10.18 6.684-11.648 21.947-11.942 29.229-.685 3.392 5.188 4.988 11.061 5.886 17.032 1.297 8.516 1.995 17.13 3.092 25.744.1 1.175.399 2.349.798 4.307 1.596-1.37 2.993-2.349 3.99-3.524 5.886-6.754 9.277-14.683 11.073-23.199 1.297-6.363 1.995-12.823 2.494-19.381.399-5.188 0-10.474.1-15.662.2-8.81 7.083-15.564 16.061-15.564 13.866-.098 27.733 0 41.599 0h1.496c2.494.196 4.09 1.958 4.09 4.111 0 2.251-1.696 3.818-4.19 4.111-.698.098-1.496 0-2.195 0h-39.404c-6.085 0-8.878 2.839-8.978 8.81-.2 8.027.1 16.151-.698 24.178-1.297 12.725-5.187 24.765-12.869 35.239-1.796 2.447-3.891 4.698-6.285 6.558-6.285 4.894-12.869 2.839-14.465-4.894-1.197-5.384-1.197-10.963-2.095-16.445-1.197-7.243-2.494-14.487-4.09-21.633-.499-2.251-1.796-4.405-3.192-6.265-3.591-4.698-10.076-4.601-13.567.098-3.092 4.209-4.29 9.201-5.088 14.193-1.397 8.908-2.294 17.913-3.591 26.918-.299 2.056-.798 4.209-1.596 6.167-1.496 3.524-4.988 5.09-8.779 4.111-3.492-.881-5.985-3.034-8.38-5.579-7.183-7.733-11.472-17.032-13.567-27.114-1.397-7.048-1.995-14.193-2.494-21.339-.399-5.188 0-10.474-.1-15.662-.1-4.503-3.192-7.439-7.781-7.439H34.519c-2.893-.098-4.689-1.664-4.788-3.915-.1-2.349 1.895-4.307 4.689-4.307 14.664 0 29.429-.196 44.093 0 7.881.098 14.664 7.146 14.864 15.074.2 6.167-.1 12.431.1 18.598.399 12.627 2.893 24.765 9.976 35.63 2.095 2.937 4.09 5.776 7.681 7.832ZM80.99 91.597q-.299 1.2-.481 2.442c-.998 6.558.599 12.823 2.693 18.99 1.097 3.23-.798 5.873-4.09 5.775-2.294-.098-3.492-1.468-4.09-3.426-.998-3.328-2.195-6.754-2.693-10.18-2.095-13.704 1.496-25.352 12.869-34.162 5.187-4.013 11.672-5.874 18.655-5.874 6.285 0 12.17 1.664 17.657 4.503 2.793 1.468 3.791 3.426 2.793 5.482-.998 2.153-3.392 2.839-6.185 1.762-.898-.392-1.796-.881-2.793-1.077-4.09-.881-8.28-2.251-12.37-2.251-7.823 0-14.702 4.215-18.786 10.607 4.828 3.95 15.34 13.968 36.185 14.125 21.954.166 54.955-11.164 66.571-13.689-5.545-9.275-17.041-13.833-28.804-9.675-3.292 1.175-6.285 3.23-9.477 4.796-2.893 1.468-5.786 3.132-8.878 4.307-3.392 1.273-5.985 0-6.684-2.643-.698-2.545 1.097-4.503 4.19-5.677 2.993-1.175 5.886-2.545 8.579-4.307 6.484-3.915 13.368-6.167 19.652-6.265v.002c19.253.098 33.12 13.802 33.519 31.91.1 6.167-.998 12.236-3.292 17.913-.599 1.468-1.995 2.937-3.392 3.426-1.097.392-3.292-.294-4.19-1.273-.798-.881-1.197-2.937-.798-4.111 1.796-5.384 3.192-10.767 2.993-16.543a26 26 0 0 0-.542-4.469c-14.719 1.613-52.997 13.822-73.437 12.652-18.779-1.074-29.036-9.542-34.74-12.683a9 9 0 0 1-.634-.387m-20.532 15.949c0 2.056.1 4.111 0 6.069-.1 2.643-1.696 4.209-4.19 4.209s-4.19-1.664-4.19-4.405c-.1-4.111-.1-8.32 0-12.431 0-2.545 1.796-4.307 4.09-4.307 2.195 0 4.19 1.86 4.29 4.209.2 2.251.1 4.405 0 6.656m157.319 39.937c0 1.958.1 3.915 0 5.873-.1 2.545-1.796 4.209-4.19 4.209-2.294 0-4.09-1.566-4.19-3.915-.1-4.111-.1-8.32 0-12.431.1-2.545 1.995-4.111 4.389-4.013 2.095.098 3.891 1.86 3.99 4.209zm-171.118 1.013c-1.995 0-3.99.099-5.985 0-2.793-.098-4.389-1.86-4.29-4.307.1-2.349 1.796-3.818 4.489-3.818 3.891 0 26.846-.098 30.736 0 2.793 0 4.589 1.664 4.589 4.013 0 2.447-1.696 4.111-4.489 4.209-2.095-.098-23.155-.097-25.05-.097m168.972-32.302c-1.995 0-3.99.098-5.985 0-2.793-.098-4.389-1.86-4.29-4.307.1-2.349 1.796-3.818 4.489-3.818 3.891 0 26.846-.098 30.736 0 2.793 0 4.589 1.664 4.589 4.013 0 2.447-1.696 4.111-4.489 4.209-2.095-.098-23.155-.097-25.05-.097"/></svg>