<?xml version="1.0" encoding="utf-8"?>
<!-- Generator: Adobe Illustrator 28.0.0, SVG Export Plug-In . SVG Version: 6.00 Build 0)  -->
<svg version="1.1" id="圖層_1" xmlns="http://www.w3.org/2000/svg" xmlns:xlink="http://www.w3.org/1999/xlink" x="0px" y="0px"
	 viewBox="0 0 274.9 274.9" style="enable-background:new 0 0 274.9 274.9;" xml:space="preserve">
<style type="text/css">
	.st0{fill:#F8F8F8;}
</style>
<path class="st0" d="M226.9,262.4H48c-16.9,0-30.6-13.7-30.6-30.6V43.1c0-16.9,13.7-30.6,30.6-30.6h178.9
	c16.9,0,30.6,13.7,30.6,30.6v188.7C257.5,248.7,243.8,262.4,226.9,262.4z"/>
<g>
	<path d="M113.3,206.8c0.3-2.1,0.7-3.9,0.8-5.6c0.9-10.5,1.6-21,4.6-31.1c1-3.6,2.3-7.2,4.1-10.4c6.7-11.9,22-12.2,29.3-0.7
		c3.4,5.3,5,11.3,5.9,17.4c1.3,8.7,2,17.5,3.1,26.3c0.1,1.2,0.4,2.4,0.8,4.4c1.6-1.4,3-2.4,4-3.6c5.9-6.9,9.3-15,11.1-23.7
		c1.3-6.5,2-13.1,2.5-19.8c0.4-5.3,0-10.7,0.1-16c0.2-9,7.1-15.9,16.1-15.9c13.9-0.1,27.8,0,41.7,0c0.5,0,1,0,1.5,0
		c2.5,0.2,4.1,2,4.1,4.2c0,2.3-1.7,3.9-4.2,4.2c-0.7,0.1-1.5,0-2.2,0c-13.2,0-26.3,0-39.5,0c-6.1,0-8.9,2.9-9,9
		c-0.2,8.2,0.1,16.5-0.7,24.7c-1.3,13-5.2,25.3-12.9,36c-1.8,2.5-3.9,4.8-6.3,6.7c-6.3,5-12.9,2.9-14.5-5
		c-1.2-5.5-1.2-11.2-2.1-16.8c-1.2-7.4-2.5-14.8-4.1-22.1c-0.5-2.3-1.8-4.5-3.2-6.4c-3.6-4.8-10.1-4.7-13.6,0.1
		c-3.1,4.3-4.3,9.4-5.1,14.5c-1.4,9.1-2.3,18.3-3.6,27.5c-0.3,2.1-0.8,4.3-1.6,6.3c-1.5,3.6-5,5.2-8.8,4.2c-3.5-0.9-6-3.1-8.4-5.7
		c-7.2-7.9-11.5-17.4-13.6-27.7c-1.4-7.2-2-14.5-2.5-21.8c-0.4-5.3,0-10.7-0.1-16c-0.1-4.6-3.2-7.6-7.8-7.6c-13.2,0-26.5,0-39.7,0
		c-1,0-2,0-3,0c-2.9-0.1-4.7-1.7-4.8-4c-0.1-2.4,1.9-4.4,4.7-4.4c14.7,0,29.5-0.2,44.2,0c7.9,0.1,14.7,7.3,14.9,15.4
		c0.2,6.3-0.1,12.7,0.1,19c0.4,12.9,2.9,25.3,10,36.4C107.7,201.8,109.7,204.7,113.3,206.8z"/>
	<path d="M167.8,67.9C187.1,68,201,82,201.4,100.5c0.1,6.3-1,12.5-3.3,18.3c-0.6,1.5-2,3-3.4,3.5c-1.1,0.4-3.3-0.3-4.2-1.3
		c-0.8-0.9-1.2-3-0.8-4.2c1.8-5.5,3.2-11,3-16.9c-0.6-17-16.2-27.8-32.3-22c-3.3,1.2-6.3,3.3-9.5,4.9c-2.9,1.5-5.8,3.2-8.9,4.4
		c-3.4,1.3-6,0-6.7-2.7c-0.7-2.6,1.1-4.6,4.2-5.8c3-1.2,5.9-2.6,8.6-4.4C154.6,70.3,161.5,68,167.8,67.9z"/>
	<path d="M106,67.9c6.3,0,12.2,1.7,17.7,4.6c2.8,1.5,3.8,3.5,2.8,5.6c-1,2.2-3.4,2.9-6.2,1.8c-0.9-0.4-1.8-0.9-2.8-1.1
		c-4.1-0.9-8.3-2.3-12.4-2.3c-11.4,0-20.8,9.1-22.5,20.9c-1,6.7,0.6,13.1,2.7,19.4c1.1,3.3-0.8,6-4.1,5.9c-2.3-0.1-3.5-1.5-4.1-3.5
		c-1-3.4-2.2-6.9-2.7-10.4c-2.1-14,1.5-25.9,12.9-34.9C92.5,69.8,99,67.9,106,67.9z"/>
	<path d="M151.1,106.5c-7.1-0.1-13.8-2-20.2-5.1c-6.7-3.2-13.5-6-20.9-7.3c-2.7-0.5-4-2.4-3.6-4.8c0.3-2.4,2.1-4,4.9-3.3
		c6.4,1.6,12.9,3.3,19,5.8c7.3,3.1,14.5,6.2,22.6,6.2c2.7,0,4.5,2.1,4.4,4.4c-0.1,2.4-1.9,4-4.8,4
		C152.1,106.5,151.6,106.5,151.1,106.5z"/>
	<path d="M62.5,111.2c0,2.1,0.1,4.2,0,6.2c-0.1,2.7-1.7,4.3-4.2,4.3c-2.5,0-4.2-1.7-4.2-4.5c-0.1-4.2-0.1-8.5,0-12.7
		c0-2.6,1.8-4.4,4.1-4.4c2.2,0,4.2,1.9,4.3,4.3C62.7,106.7,62.6,108.9,62.5,111.2C62.6,111.2,62.5,111.2,62.5,111.2z"/>
	<path d="M221.1,111.2c0,2.1,0.1,4.2,0,6.2c-0.1,2.7-1.8,4.4-4.4,4.3c-2.5-0.1-4-1.7-4-4.4c0-4.2-0.1-8.3,0-12.5
		c0-2.8,1.7-4.6,4.1-4.7c2.4,0,4.3,2,4.4,4.8C221.2,107,221.2,109.1,221.1,111.2C221.1,111.2,221.1,111.2,221.1,111.2z"/>
	<path d="M221.2,152c0,2,0.1,4,0,6c-0.1,2.6-1.8,4.3-4.2,4.3c-2.3,0-4.1-1.6-4.2-4c-0.1-4.2-0.1-8.5,0-12.7c0.1-2.6,2-4.2,4.4-4.1
		c2.1,0.1,3.9,1.9,4,4.3C221.2,147.8,221.2,149.9,221.2,152C221.2,152,221.2,152,221.2,152z"/>
	<path d="M62.5,151.9c0,2,0.1,4,0,6c-0.1,2.8-1.9,4.4-4.4,4.3c-2.4-0.1-3.9-1.8-3.9-4.5c0-3.9-0.1-7.8,0-11.7c0-2.8,1.7-4.6,4.1-4.6
		c2.5,0,4.2,1.7,4.3,4.5C62.5,148,62.5,150,62.5,151.9C62.5,151.9,62.5,151.9,62.5,151.9z"/>
</g>
</svg>
