<svg id="圖層_1" data-name="圖層 1" xmlns="http://www.w3.org/2000/svg" viewBox="0 0 44.28 44.28"><defs><style>.cls-1{fill:#b2846f;}.cls-2{fill:#fff;}</style></defs><rect class="cls-1" width="44.28" height="44.28" rx="12"/><path class="cls-2" d="M30.81,6.89a7.1,7.1,0,0,1,4.94,1.94,6.91,6.91,0,0,1,2,4.82,7.56,7.56,0,0,1-.08,1.26,14.66,14.66,0,0,1-.18,1.78c-.34,1.1-.69,2.2-1,3.38a19,19,0,0,0-1.3,4.81v3.55c0,1.78.09,3.64-.08,5.33a4,4,0,0,1-1.56,2.7,4.45,4.45,0,0,1-2.87.93A4.08,4.08,0,0,1,28.9,37a3.49,3.49,0,0,1-1.47-1.27l-4.6-4.9a.41.41,0,0,0-.26-.17c-.08-.08-.26-.08-.43-.08a4.37,4.37,0,0,0-.7.42l-4.5,4.65a3.74,3.74,0,0,1-1.56,1.26,4.68,4.68,0,0,1-1.82.42,5,5,0,0,1-2.87-.92,3.87,3.87,0,0,1-1.56-2.71c.09-1.27.09-2.45.18-3.72,0-.93.08-1.85.08-2.78a9.14,9.14,0,0,0-.26-3.47c-.34-.93-.6-1.86-1-2.79a23.7,23.7,0,0,1-1.39-4.14A16.31,16.31,0,0,1,6.62,15a8.19,8.19,0,0,1-.09-1.35A6.33,6.33,0,0,1,8.61,8.92,6.55,6.55,0,0,1,13.47,7,6.73,6.73,0,0,1,16,7.39c.61.26,1.22.6,1.82.85s1.22.59,1.82.84a7,7,0,0,0,2.52.43,6.52,6.52,0,0,0,2.51-.43c.61-.25,1.3-.59,1.82-.84a19.71,19.71,0,0,1,1.82-.85A6.67,6.67,0,0,1,30.81,6.89Zm0,2.53a5.31,5.31,0,0,0-1.74.26,8.18,8.18,0,0,0-1.56.76,16,16,0,0,1-2.6,1.09,9.23,9.23,0,0,1-2.86.34,8.29,8.29,0,0,1-2.77-.34,16,16,0,0,1-2.6-1.09,6.23,6.23,0,0,0-1.56-.76,5.72,5.72,0,0,0-1.74-.26,4.3,4.3,0,0,0-3.12,1.27,3.74,3.74,0,0,0-1.13,3,4.53,4.53,0,0,0,.09,1c0,.42.09.93.17,1.61.44,1.26.78,2.45,1.22,3.71.26.93.6,1.86.86,2.79a9.34,9.34,0,0,1,.61,3.47c0,1-.08,2-.08,3a22.08,22.08,0,0,0-.18,4.14,1.57,1.57,0,0,0,.61,1.1,2.11,2.11,0,0,0,1.13.42,2.73,2.73,0,0,0,.78-.17c.26-.08.43-.34.6-.51l4.42-4.56a3.27,3.27,0,0,1,1.3-1.1,3.74,3.74,0,0,1,1.65-.42,2.71,2.71,0,0,1,1.56.42,3.2,3.2,0,0,1,1.3,1.1l4.42,4.65a1.17,1.17,0,0,0,.61.5,1.94,1.94,0,0,0,.69.17A1.85,1.85,0,0,0,32,34.6a1.27,1.27,0,0,0,.61-1V30a28.69,28.69,0,0,1,.09-5.49,17.1,17.1,0,0,1,.86-3,46.82,46.82,0,0,0,1.48-5.06,12.92,12.92,0,0,0,.17-1.53v-1a4.08,4.08,0,0,0-1.3-3A3.88,3.88,0,0,0,30.81,9.42Z"/></svg>